<?xml version="1.0" standalone="no"?>
<!DOCTYPE svg PUBLIC "-//W3C//DTD SVG 20010904//EN"
 "http://www.w3.org/TR/2001/REC-SVG-20010904/DTD/svg10.dtd">
<svg version="1.0" xmlns="http://www.w3.org/2000/svg"
 width="1257.000000pt" height="863.000000pt" viewBox="0 0 1257.000000 863.000000"
 preserveAspectRatio="xMidYMid meet">
<metadata>
Created by potrace 1.15, written by Peter Selinger 2001-2017
</metadata>
<g transform="translate(0.000000,863.000000) scale(0.100000,-0.100000)"
fill="#000000" stroke="none">
<path d="M6305 8605 c-96 -22 -5854 -1944 -5916 -1976 -58 -29 -113 -82 -131
-128 -17 -43 -14 -152 5 -188 23 -44 79 -99 125 -122 20 -10 300 -107 622
-214 546 -183 649 -218 724 -247 l29 -11 -20 -22 c-12 -12 -52 -69 -91 -127
-226 -340 -367 -781 -423 -1325 -6 -60 -16 -126 -20 -146 -10 -41 -53 -101
-89 -122 -42 -26 -141 -129 -178 -187 -60 -93 -102 -239 -102 -348 1 -104 49
-255 111 -348 34 -50 133 -150 181 -184 43 -29 68 -76 68 -128 0 -43 -37 -258
-70 -402 -71 -317 -194 -640 -348 -910 -105 -186 -253 -399 -369 -530 -12 -14
-30 -34 -40 -46 -10 -11 -92 -101 -183 -198 -91 -98 -169 -185 -174 -194 -22
-39 130 -131 680 -408 159 -81 176 -87 245 -92 138 -8 253 33 394 141 366 280
551 640 606 1172 22 215 13 739 -16 960 -3 17 -12 95 -20 175 -9 80 -23 190
-31 245 -28 203 -21 236 78 344 56 61 98 133 130 221 19 55 23 85 23 195 0
110 -3 139 -22 186 -33 86 -80 158 -144 224 -69 70 -118 160 -126 233 -10 94
70 542 127 713 45 132 147 339 216 434 193 268 401 419 804 586 156 64 335
139 465 194 55 24 168 71 250 105 83 34 164 68 180 76 45 20 173 73 230 94 28
10 109 42 180 70 72 28 249 96 395 151 146 55 303 116 350 134 47 19 274 104
505 190 231 86 467 174 525 197 58 22 146 54 195 70 163 56 275 38 371 -59 53
-55 74 -111 74 -196 0 -89 -28 -155 -89 -210 -50 -45 -101 -70 -281 -137 -74
-28 -180 -68 -235 -90 -55 -21 -131 -50 -170 -65 -38 -14 -86 -32 -105 -40
-19 -7 -60 -23 -90 -34 -30 -12 -136 -52 -235 -90 -99 -38 -265 -101 -370
-141 -104 -39 -237 -90 -295 -112 -58 -22 -133 -51 -167 -64 -35 -13 -93 -36
-130 -50 -38 -14 -97 -37 -133 -50 -36 -14 -110 -42 -165 -64 -55 -21 -129
-49 -165 -63 -250 -94 -683 -264 -745 -293 -30 -13 -66 -29 -82 -35 -86 -32
-97 -41 -65 -58 17 -9 2206 -740 2827 -944 176 -58 343 -108 372 -112 28 -3
80 -1 115 5 78 14 5836 1930 5933 1975 120 54 172 134 162 245 -8 94 -49 151
-142 200 -59 31 -5843 1960 -5933 1979 -67 14 -111 13 -187 -4z"/>
<path d="M10290 4789 c-53 -15 -2690 -893 -3155 -1051 -503 -171 -570 -188
-727 -188 -147 0 -208 13 -449 95 -297 102 -3342 1115 -3359 1117 -11 2 -23
-20 -42 -77 -40 -123 -59 -259 -61 -444 l-2 -164 90 -80 c149 -132 236 -257
295 -424 58 -164 80 -372 54 -517 -26 -143 -118 -337 -219 -460 l-34 -42 92
-90 c113 -111 251 -218 370 -285 63 -36 273 -141 317 -159 25 -10 86 -35 135
-55 553 -224 1238 -374 1990 -435 72 -5 155 -12 185 -15 349 -30 1136 -25
1480 10 25 3 92 10 150 16 335 33 824 119 1143 200 281 71 459 129 742 242 42
17 291 142 345 173 328 190 553 398 645 597 73 159 69 93 73 1087 3 846 1 961
-16 959 -4 0 -23 -5 -42 -10z"/>
</g>
</svg>
